####
#
# OBJ File Generated by Meshlab
#
####
# Object blockRemesh192.obj
#
# Vertices: 98
# Faces: 192
#
####
vn -0.577350 -0.577350 -0.577350
v -0.050000 -0.050000 -0.050000
vn -0.408248 -0.408248 0.816497
v -0.050000 -0.050000 0.050000
vn -0.408248 0.816497 -0.408248
v -0.050000 0.050000 -0.050000
vn -0.816497 0.408248 0.408248
v -0.050000 0.050000 0.050000
vn 0.816497 -0.408248 -0.408248
v 0.050000 -0.050000 -0.050000
vn 0.408248 -0.816497 0.408248
v 0.050000 -0.050000 0.050000
vn 0.408248 0.408248 -0.816497
v 0.050000 0.050000 -0.050000
vn 0.577350 0.577350 0.577350
v 0.050000 0.050000 0.050000
vn 0.000000 0.000000 -1.000000
v 0.000000 0.000000 -0.050000
vn -0.707107 0.000000 -0.707107
v -0.050000 0.000000 -0.050000
vn 0.000000 0.707107 -0.707107
v 0.000000 0.050000 -0.050000
vn -1.000000 0.000000 0.000000
v -0.050000 0.000000 0.000000
vn -0.707107 -0.707107 0.000000
v -0.050000 -0.050000 0.000000
vn -0.707107 0.000000 0.707107
v -0.050000 0.000000 0.050000
vn 0.000000 1.000000 0.000000
v 0.000000 0.050000 0.000000
vn -0.707107 0.707107 0.000000
v -0.050000 0.050000 0.000000
vn 0.000000 0.707107 0.707107
v 0.000000 0.050000 0.050000
vn 0.707107 0.000000 -0.707107
v 0.050000 0.000000 -0.050000
vn 0.707107 0.707107 0.000000
v 0.050000 0.050000 0.000000
vn 1.000000 0.000000 0.000000
v 0.050000 0.000000 0.000000
vn 0.000000 -0.707107 -0.707107
v 0.000000 -0.050000 -0.050000
vn 0.707107 -0.707107 0.000000
v 0.050000 -0.050000 0.000000
vn 0.000000 -1.000000 0.000000
v 0.000000 -0.050000 0.000000
vn 0.000000 -0.707107 0.707107
v 0.000000 -0.050000 0.050000
vn 0.707107 0.000000 0.707107
v 0.050000 0.000000 0.050000
vn 0.000000 0.000000 1.000000
v 0.000000 0.000000 0.050000
v 0.025000 0.000000 -0.050000
v 0.025000 -0.025000 -0.050000
v -0.025000 0.025000 -0.050000
v -0.025000 0.000000 -0.050000
v -0.050000 0.025000 0.000000
v -0.050000 0.000000 -0.025000
v -0.050000 -0.025000 0.025000
v -0.050000 -0.025000 0.000000
v 0.025000 0.050000 0.000000
v 0.000000 0.050000 -0.025000
v -0.025000 0.050000 0.025000
v -0.025000 0.050000 0.000000
v 0.050000 0.025000 -0.025000
v 0.050000 0.025000 0.000000
v 0.050000 0.000000 0.025000
v 0.025000 -0.050000 -0.025000
v 0.025000 -0.050000 0.000000
v 0.000000 -0.050000 0.025000
v -0.025000 -0.050000 0.000000
v 0.025000 -0.025000 0.050000
v 0.025000 0.000000 0.050000
v -0.025000 0.000000 0.050000
v -0.025000 -0.025000 -0.050000
v 0.000000 -0.025000 -0.050000
v 0.050000 0.025000 -0.050000
v 0.025000 -0.050000 -0.050000
v -0.050000 -0.025000 -0.050000
v -0.025000 0.050000 -0.050000
v 0.000000 0.025000 -0.050000
v 0.025000 0.025000 -0.050000
v -0.050000 -0.025000 -0.025000
v -0.050000 0.050000 0.025000
v -0.050000 0.025000 -0.025000
v -0.050000 0.025000 -0.050000
v -0.050000 -0.050000 -0.025000
v -0.050000 -0.025000 0.050000
v -0.050000 0.000000 0.025000
v -0.050000 0.025000 0.025000
v -0.025000 0.050000 -0.025000
v 0.050000 0.050000 0.025000
v 0.025000 0.050000 -0.025000
v 0.025000 0.050000 -0.050000
v -0.050000 0.050000 -0.025000
v -0.025000 0.050000 0.050000
v 0.000000 0.050000 0.025000
v 0.025000 0.050000 0.025000
v 0.050000 -0.025000 -0.050000
v 0.050000 0.000000 -0.025000
v 0.050000 0.050000 -0.025000
v 0.050000 0.025000 0.025000
v 0.050000 -0.025000 -0.025000
v 0.050000 -0.025000 0.000000
v 0.050000 0.025000 0.050000
v 0.050000 -0.025000 0.025000
v 0.050000 -0.050000 0.025000
v -0.025000 -0.050000 -0.050000
v 0.000000 -0.050000 -0.025000
v 0.050000 -0.050000 -0.025000
v 0.025000 -0.050000 0.025000
v -0.025000 -0.050000 -0.025000
v 0.025000 -0.050000 0.050000
v -0.025000 -0.050000 0.025000
v -0.050000 -0.050000 0.025000
v -0.025000 -0.050000 0.050000
v 0.000000 -0.025000 0.050000
v 0.050000 -0.025000 0.050000
v 0.025000 0.025000 0.050000
v -0.025000 -0.025000 0.050000
v 0.025000 0.050000 0.050000
v 0.000000 0.025000 0.050000
v -0.025000 0.025000 0.050000
v -0.050000 0.025000 0.050000
# 98 vertices, 26 vertices normals

f 27//9 28//9 50//9
f 29//9 55//9 30//9
f 31//12 59//12 32//12
f 33//12 63//12 34//12
f 35//15 67//15 36//15
f 37//15 71//15 38//15
f 39//20 40//20 74//20
f 41//20 80//20 78//20
f 42//23 43//23 83//23
f 44//23 88//23 45//23
f 46//26 47//26 91//26
f 96//26 97//26 48//26
f 49//9 50//9 82//21
f 56//9 51//18 27//9
f 28//9 73//18 52//21
f 53//10 30//9 49//9
f 60//10 54//11 29//9
f 55//9 68//11 56//9
f 57//12 32//12 53//10
f 64//12 58//16 31//12
f 59//12 69//16 60//10
f 61//13 34//12 57//12
f 89//13 62//14 33//12
f 63//12 98//14 64//12
f 65//15 36//15 54//11
f 72//15 66//19 35//15
f 67//15 75//19 68//11
f 69//16 38//15 65//15
f 58//16 70//17 37//15
f 71//15 95//17 72//15
f 73//18 74//20 77//20
f 51//18 75//19 39//20
f 40//20 66//19 76//20
f 77//20 78//20 84//22
f 76//20 79//25 41//20
f 80//20 92//25 81//22
f 82//21 83//23 86//23
f 52//21 84//22 42//23
f 43//23 81//22 85//23
f 86//23 45//23 61//13
f 85//23 87//24 44//23
f 88//23 90//24 89//13
f 90//24 91//26 94//26
f 87//24 92//25 46//26
f 47//26 79//25 93//26
f 94//26 48//26 62//14
f 93//26 95//17 96//26
f 97//26 70//17 98//14
f 9//9 27//9 50//9
f 27//9 18//18 28//9
f 50//9 28//9 21//21
f 10//10 29//9 30//9
f 29//9 11//11 55//9
f 30//9 55//9 9//9
f 12//12 31//12 32//12
f 31//12 16//16 59//12
f 32//12 59//12 10//10
f 13//13 33//12 34//12
f 33//12 14//14 63//12
f 34//12 63//12 12//12
f 15//15 35//15 36//15
f 35//15 19//19 67//15
f 36//15 67//15 11//11
f 16//16 37//15 38//15
f 37//15 17//17 71//15
f 38//15 71//15 15//15
f 18//18 39//20 74//20
f 39//20 19//19 40//20
f 74//20 40//20 20//20
f 20//20 41//20 78//20
f 41//20 25//25 80//20
f 78//20 80//20 22//22
f 21//21 42//23 83//23
f 42//23 22//22 43//23
f 83//23 43//23 23//23
f 23//23 44//23 45//23
f 44//23 24//24 88//23
f 45//23 88//23 13//13
f 24//24 46//26 91//26
f 46//26 25//25 47//26
f 91//26 47//26 26//26
f 26//26 96//26 48//26
f 96//26 17//17 97//26
f 48//26 97//26 14//14
f 1//1 49//9 82//21
f 49//9 9//9 50//9
f 82//21 50//9 21//21
f 9//9 56//9 27//9
f 56//9 7//7 51//18
f 27//9 51//18 18//18
f 21//21 28//9 52//21
f 28//9 18//18 73//18
f 52//21 73//18 5//5
f 1//1 53//10 49//9
f 53//10 10//10 30//9
f 49//9 30//9 9//9
f 10//10 60//10 29//9
f 60//10 3//3 54//11
f 29//9 54//11 11//11
f 9//9 55//9 56//9
f 55//9 11//11 68//11
f 56//9 68//11 7//7
f 1//1 57//12 53//10
f 57//12 12//12 32//12
f 53//10 32//12 10//10
f 12//12 64//12 31//12
f 64//12 4//4 58//16
f 31//12 58//16 16//16
f 10//10 59//12 60//10
f 59//12 16//16 69//16
f 60//10 69//16 3//3
f 1//1 61//13 57//12
f 61//13 13//13 34//12
f 57//12 34//12 12//12
f 13//13 89//13 33//12
f 89//13 2//2 62//14
f 33//12 62//14 14//14
f 12//12 63//12 64//12
f 63//12 14//14 98//14
f 64//12 98//14 4//4
f 3//3 65//15 54//11
f 65//15 15//15 36//15
f 54//11 36//15 11//11
f 15//15 72//15 35//15
f 72//15 8//8 66//19
f 35//15 66//19 19//19
f 11//11 67//15 68//11
f 67//15 19//19 75//19
f 68//11 75//19 7//7
f 3//3 69//16 65//15
f 69//16 16//16 38//15
f 65//15 38//15 15//15
f 16//16 58//16 37//15
f 58//16 4//4 70//17
f 37//15 70//17 17//17
f 15//15 71//15 72//15
f 71//15 17//17 95//17
f 72//15 95//17 8//8
f 5//5 73//18 77//20
f 73//18 18//18 74//20
f 77//20 74//20 20//20
f 18//18 51//18 39//20
f 51//18 7//7 75//19
f 39//20 75//19 19//19
f 20//20 40//20 76//20
f 40//20 19//19 66//19
f 76//20 66//19 8//8
f 5//5 77//20 84//22
f 77//20 20//20 78//20
f 84//22 78//20 22//22
f 20//20 76//20 41//20
f 76//20 8//8 79//25
f 41//20 79//25 25//25
f 22//22 80//20 81//22
f 80//20 25//25 92//25
f 81//22 92//25 6//6
f 1//1 82//21 86//23
f 82//21 21//21 83//23
f 86//23 83//23 23//23
f 21//21 52//21 42//23
f 52//21 5//5 84//22
f 42//23 84//22 22//22
f 23//23 43//23 85//23
f 43//23 22//22 81//22
f 85//23 81//22 6//6
f 1//1 86//23 61//13
f 86//23 23//23 45//23
f 61//13 45//23 13//13
f 23//23 85//23 44//23
f 85//23 6//6 87//24
f 44//23 87//24 24//24
f 13//13 88//23 89//13
f 88//23 24//24 90//24
f 89//13 90//24 2//2
f 2//2 90//24 94//26
f 90//24 24//24 91//26
f 94//26 91//26 26//26
f 24//24 87//24 46//26
f 87//24 6//6 92//25
f 46//26 92//25 25//25
f 26//26 47//26 93//26
f 47//26 25//25 79//25
f 93//26 79//25 8//8
f 2//2 94//26 62//14
f 94//26 26//26 48//26
f 62//14 48//26 14//14
f 26//26 93//26 96//26
f 93//26 8//8 95//17
f 96//26 95//17 17//17
f 14//14 97//26 98//14
f 97//26 17//17 70//17
f 98//14 70//17 4//4
# 192 faces, 0 coords texture

# End of File