####
#
# OBJ File Generated by Meshlab
#
####
# Object Shoulder_meters.obj
#
# Vertices: 148
# Faces: 288
#
####
vn -0.867494 2.880322 2.556515
v 0.001035 0.013201 0.006900
vn 0.000000 0.000000 -6.283187
v 0.001005 0.011829 0.003600
vn 0.000000 0.000000 -6.283185
v 0.000738 0.011655 0.003600
vn 0.000000 0.000000 -6.283187
v 0.000267 0.011231 0.003600
vn 0.000000 0.000000 -6.283185
v 0.000067 0.010984 0.003600
vn 0.000000 0.000000 -6.283185
v -0.000106 0.010717 0.003600
vn -0.867494 2.880322 -2.556536
v 0.001035 0.013201 0.003600
vn -0.537467 -2.011908 1.449285
v -0.013282 -0.004457 0.006900
vn -2.272494 0.607117 1.692278
v -0.016352 0.001683 0.006900
vn -2.272493 0.607117 -1.692278
v -0.016352 0.001683 0.003600
vn -0.696034 -1.460028 -5.201540
v -0.000985 0.003690 0.003600
vn 0.000000 0.000000 -6.283185
v -0.000447 0.009830 0.003600
vn -0.537467 -2.011908 -1.449285
v -0.013282 -0.004457 0.003600
vn 0.000000 0.000000 -6.283185
v -0.000365 0.010137 0.003600
vn 0.000000 0.000000 -6.283185
v -0.000497 0.008882 0.003600
vn 0.000000 0.000000 -6.283186
v -0.000513 0.009199 0.003600
vn 0.000000 0.000000 -6.283186
v 0.001288 0.006426 0.003600
vn 0.000000 0.000000 -6.283185
v 0.001585 0.006312 0.003600
vn 0.000000 0.000000 -6.283185
v 0.002205 0.006180 0.003600
vn 0.000000 0.000000 -6.283185
v 0.004041 0.006570 0.003600
vn 0.000000 0.000000 -6.283185
v 0.004554 0.006943 0.003600
vn 0.000000 0.000000 -6.283184
v 0.004979 0.007415 0.003600
vn 0.000000 0.000000 -6.283185
v 0.005152 0.007681 0.003600
vn 1.570797 -1.570796 -1.570789
v 0.007701 -0.017291 0.003600
vn 0.000000 0.000000 -6.283185
v 0.005492 0.008568 0.003600
vn 0.000000 0.000000 -6.283188
v 0.005542 0.009517 0.003600
vn 0.000000 0.000000 -6.283185
v 0.005492 0.009830 0.003600
vn 0.000000 0.000000 -6.283185
v 0.005152 0.010717 0.003600
vn 0.000000 0.000000 -6.283185
v 0.005296 0.010434 0.003600
vn 0.000000 0.000000 -6.283185
v 0.004779 0.011231 0.003600
vn 1.570796 1.570796 -1.570798
v 0.007701 0.013201 0.003600
vn 0.000000 0.000000 -6.283185
v 0.002840 0.012219 0.003600
vn 0.000000 0.000000 -6.283185
v 0.003154 0.012169 0.003600
vn 0.000000 0.000000 -6.283185
v 0.002523 0.012235 0.003600
vn 0.000000 0.000000 -6.283184
v 0.001892 0.012169 0.003600
vn -0.696034 -1.460028 5.201519
v -0.000985 0.003690 0.006900
vn 1.570797 1.570796 1.570796
v 0.007701 0.013201 0.006900
vn 1.570796 -1.570796 1.570796
v 0.007701 -0.017291 0.006900
vn -1.563567 -1.721326 1.666773
v 0.001035 -0.017291 0.006900
vn -1.563567 -1.721325 -1.666780
v 0.001035 -0.017291 0.003600
vn 0.000000 0.000000 -6.283188
v 0.002205 0.012219 0.003600
vn 0.000000 0.000000 -6.283184
v 0.004307 0.006743 0.003600
vn 0.000000 0.000000 -6.283186
v 0.004779 0.007168 0.003600
vn 0.000000 0.000000 -6.283186
v 0.005296 0.007964 0.003600
vn 0.000000 0.000000 -6.283185
v 0.005410 0.008261 0.003600
vn 0.000000 0.000000 -6.283187
v 0.005542 0.008882 0.003600
vn 0.000000 0.000000 -6.283185
v 0.005559 0.009199 0.003600
vn 0.000000 0.000000 -6.283185
v 0.003758 0.006426 0.003600
vn 0.000000 0.000000 -6.283185
v 0.005410 0.010137 0.003600
vn 0.000000 0.000000 -6.283184
v 0.003461 0.006312 0.003600
vn 0.000000 0.000000 -6.283186
v 0.004979 0.010984 0.003600
vn 0.000000 0.000000 -6.283186
v 0.003154 0.006230 0.003600
vn 0.000000 0.000000 -6.283185
v 0.002840 0.006180 0.003600
vn 0.000000 0.000000 -6.283186
v 0.002523 0.006163 0.003600
vn 0.000000 0.000000 -6.283186
v 0.001892 0.006230 0.003600
vn 0.000000 0.000000 -6.283184
v 0.001005 0.006570 0.003600
vn 0.000000 0.000000 -6.283185
v 0.000738 0.006743 0.003600
vn 0.000000 0.000000 -6.283185
v 0.004554 0.011455 0.003600
vn 0.000000 0.000000 -6.283185
v 0.000491 0.006943 0.003600
vn 0.000000 0.000000 -6.283185
v 0.004307 0.011655 0.003600
vn 0.000000 0.000000 -6.283185
v 0.004041 0.011829 0.003600
vn 0.000000 0.000000 -6.283186
v 0.000267 0.007168 0.003600
vn 0.000000 0.000000 -6.283185
v 0.000067 0.007415 0.003600
vn 0.000000 0.000000 -6.283183
v 0.003758 0.011973 0.003600
vn 0.000000 0.000000 -6.283185
v -0.000106 0.007681 0.003600
vn 0.000000 0.000000 -6.283185
v -0.000251 0.007964 0.003600
vn 0.000000 0.000000 -6.283185
v -0.000365 0.008261 0.003600
vn 0.000000 0.000000 -6.283183
v -0.000447 0.008568 0.003600
vn 0.000000 0.000000 -6.283184
v -0.000497 0.009517 0.003600
vn 0.000000 0.000000 -6.283185
v 0.003461 0.012087 0.003600
vn 0.000000 0.000000 -6.283186
v -0.000251 0.010434 0.003600
vn 0.000000 0.000000 -6.283185
v 0.000491 0.011455 0.003600
vn 0.000000 0.000000 -6.283184
v 0.001585 0.012087 0.003600
vn 0.000000 0.000000 -6.283185
v 0.001288 0.011973 0.003600
vn -0.867494 2.880322 2.556515
v 0.001035 0.013201 -0.003600
vn 0.000000 0.000000 -6.283187
v 0.001005 0.011829 -0.006900
vn 0.000000 0.000000 -6.283185
v 0.000738 0.011655 -0.006900
vn 0.000000 0.000000 -6.283187
v 0.000267 0.011231 -0.006900
vn 0.000000 0.000000 -6.283185
v 0.000067 0.010984 -0.006900
vn 0.000000 0.000000 -6.283185
v -0.000106 0.010717 -0.006900
vn -0.867494 2.880322 -2.556536
v 0.001035 0.013201 -0.006900
vn -0.537467 -2.011908 1.449285
v -0.013282 -0.004457 -0.003600
vn -2.272494 0.607117 1.692278
v -0.016352 0.001683 -0.003600
vn -2.272493 0.607117 -1.692278
v -0.016352 0.001683 -0.006900
vn -0.696034 -1.460028 -5.201540
v -0.000985 0.003690 -0.006900
vn 0.000000 0.000000 -6.283185
v -0.000447 0.009830 -0.006900
vn -0.537467 -2.011908 -1.449285
v -0.013282 -0.004457 -0.006900
vn 0.000000 0.000000 -6.283185
v -0.000365 0.010137 -0.006900
vn 0.000000 0.000000 -6.283185
v -0.000497 0.008882 -0.006900
vn 0.000000 0.000000 -6.283186
v -0.000513 0.009199 -0.006900
vn 0.000000 0.000000 -6.283186
v 0.001288 0.006426 -0.006900
vn 0.000000 0.000000 -6.283185
v 0.001585 0.006312 -0.006900
vn 0.000000 0.000000 -6.283185
v 0.002205 0.006180 -0.006900
vn 0.000000 0.000000 -6.283185
v 0.004041 0.006570 -0.006900
vn 0.000000 0.000000 -6.283185
v 0.004554 0.006943 -0.006900
vn 0.000000 0.000000 -6.283184
v 0.004979 0.007415 -0.006900
vn 0.000000 0.000000 -6.283185
v 0.005152 0.007681 -0.006900
vn 1.570797 -1.570796 -1.570789
v 0.007701 -0.017291 -0.006900
vn 0.000000 0.000000 -6.283185
v 0.005492 0.008568 -0.006900
vn 0.000000 0.000000 -6.283188
v 0.005542 0.009517 -0.006900
vn 0.000000 0.000000 -6.283185
v 0.005492 0.009830 -0.006900
vn 0.000000 0.000000 -6.283185
v 0.005152 0.010717 -0.006900
vn 0.000000 0.000000 -6.283185
v 0.005296 0.010434 -0.006900
vn 0.000000 0.000000 -6.283185
v 0.004779 0.011231 -0.006900
vn 1.570796 1.570796 -1.570798
v 0.007701 0.013201 -0.006900
vn 0.000000 0.000000 -6.283185
v 0.002840 0.012219 -0.006900
vn 0.000000 0.000000 -6.283185
v 0.003154 0.012169 -0.006900
vn 0.000000 0.000000 -6.283185
v 0.002523 0.012235 -0.006900
vn 0.000000 0.000000 -6.283184
v 0.001892 0.012169 -0.006900
vn -0.696034 -1.460028 5.201519
v -0.000985 0.003690 -0.003600
vn 1.570797 1.570796 1.570796
v 0.007701 0.013201 -0.003600
vn 1.570796 -1.570796 1.570796
v 0.007701 -0.017291 -0.003600
vn -1.563567 -1.721326 1.666773
v 0.001035 -0.017291 -0.003600
vn -1.563567 -1.721326 -1.666780
v 0.001035 -0.017291 -0.006900
vn 0.000000 0.000000 -6.283188
v 0.002205 0.012219 -0.006900
vn 0.000000 0.000000 -6.283184
v 0.004307 0.006743 -0.006900
vn 0.000000 0.000000 -6.283186
v 0.004779 0.007168 -0.006900
vn 0.000000 0.000000 -6.283186
v 0.005296 0.007964 -0.006900
vn 0.000000 0.000000 -6.283185
v 0.005410 0.008261 -0.006900
vn 0.000000 0.000000 -6.283187
v 0.005542 0.008882 -0.006900
vn 0.000000 0.000000 -6.283185
v 0.005559 0.009199 -0.006900
vn 0.000000 0.000000 -6.283185
v 0.003758 0.006426 -0.006900
vn 0.000000 0.000000 -6.283185
v 0.005410 0.010137 -0.006900
vn 0.000000 0.000000 -6.283184
v 0.003461 0.006312 -0.006900
vn 0.000000 0.000000 -6.283186
v 0.004979 0.010984 -0.006900
vn 0.000000 0.000000 -6.283186
v 0.003154 0.006230 -0.006900
vn 0.000000 0.000000 -6.283185
v 0.002840 0.006180 -0.006900
vn 0.000000 0.000000 -6.283186
v 0.002523 0.006163 -0.006900
vn 0.000000 0.000000 -6.283186
v 0.001892 0.006230 -0.006900
vn 0.000000 0.000000 -6.283184
v 0.001005 0.006570 -0.006900
vn 0.000000 0.000000 -6.283185
v 0.000738 0.006743 -0.006900
vn 0.000000 0.000000 -6.283185
v 0.004554 0.011455 -0.006900
vn 0.000000 0.000000 -6.283185
v 0.000491 0.006943 -0.006900
vn 0.000000 0.000000 -6.283185
v 0.004307 0.011655 -0.006900
vn 0.000000 0.000000 -6.283185
v 0.004041 0.011829 -0.006900
vn 0.000000 0.000000 -6.283186
v 0.000267 0.007168 -0.006900
vn 0.000000 0.000000 -6.283185
v 0.000067 0.007415 -0.006900
vn 0.000000 0.000000 -6.283183
v 0.003758 0.011973 -0.006900
vn 0.000000 0.000000 -6.283185
v -0.000106 0.007681 -0.006900
vn 0.000000 0.000000 -6.283185
v -0.000251 0.007964 -0.006900
vn 0.000000 0.000000 -6.283185
v -0.000365 0.008261 -0.006900
vn 0.000000 0.000000 -6.283183
v -0.000447 0.008568 -0.006900
vn 0.000000 0.000000 -6.283184
v -0.000497 0.009517 -0.006900
vn 0.000000 0.000000 -6.283185
v 0.003461 0.012087 -0.006900
vn 0.000000 0.000000 -6.283186
v -0.000251 0.010434 -0.006900
vn 0.000000 0.000000 -6.283185
v 0.000491 0.011455 -0.006900
vn 0.000000 0.000000 -6.283184
v 0.001585 0.012087 -0.006900
vn 0.000000 0.000000 -6.283185
v 0.001288 0.011973 -0.006900
# 148 vertices, 0 vertices normals

f 31//31 7//7 1//1
f 1//1 37//37 31//31
f 35//35 7//7 31//31
f 73//73 7//7 35//35
f 74//74 7//7 73//73
f 2//2 7//7 74//74
f 3//3 7//7 2//2
f 72//72 7//7 3//3
f 4//4 7//7 72//72
f 5//5 7//7 4//4
f 6//6 7//7 5//5
f 71//71 7//7 6//6
f 13//13 7//7 71//71
f 7//7 13//13 10//10
f 10//10 13//13 8//8
f 8//8 9//9 10//10
f 13//13 11//11 36//36
f 36//36 8//8 13//13
f 13//13 69//69 11//11
f 13//13 12//12 69//69
f 13//13 14//14 12//12
f 13//13 71//71 14//14
f 11//11 69//69 16//16
f 15//15 11//11 16//16
f 11//11 15//15 40//40
f 40//40 15//15 68//68
f 40//40 68//68 67//67
f 40//40 67//67 66//66
f 40//40 66//66 65//65
f 40//40 65//65 63//63
f 40//40 63//63 62//62
f 40//40 62//62 59//59
f 40//40 59//59 57//57
f 40//40 57//57 56//56
f 40//40 56//56 17//17
f 40//40 17//17 24//24
f 24//24 17//17 18//18
f 24//24 18//18 55//55
f 24//24 55//55 19//19
f 24//24 19//19 54//54
f 24//24 54//54 53//53
f 24//24 53//53 52//52
f 24//24 52//52 50//50
f 24//24 50//50 48//48
f 24//24 48//48 20//20
f 24//24 20//20 42//42
f 24//24 42//42 21//21
f 24//24 21//21 43//43
f 24//24 43//43 22//22
f 24//24 22//22 23//23
f 24//24 23//23 44//44
f 24//24 44//44 45//45
f 24//24 45//45 25//25
f 24//24 25//25 46//46
f 24//24 46//46 47//47
f 24//24 47//47 31//31
f 26//26 31//31 47//47
f 27//27 31//31 26//26
f 49//49 31//31 27//27
f 29//29 31//31 49//49
f 28//28 31//31 29//29
f 51//51 31//31 28//28
f 30//30 31//31 51//51
f 58//58 31//31 30//30
f 60//60 31//31 58//58
f 61//61 31//31 60//60
f 64//64 31//31 61//61
f 70//70 31//31 64//64
f 33//33 31//31 70//70
f 32//32 31//31 33//33
f 34//34 31//31 32//32
f 41//41 31//31 34//34
f 35//35 31//31 41//41
f 24//24 31//31 37//37
f 37//37 38//38 24//24
f 36//36 9//9 8//8
f 1//1 36//36 39//39
f 1//1 9//9 36//36
f 37//37 1//1 38//38
f 39//39 38//38 1//1
f 11//11 40//40 39//39
f 39//39 36//36 11//11
f 40//40 24//24 38//38
f 38//38 39//39 40//40
f 7//7 10//10 9//9
f 9//9 1//1 7//7
f 35//35 41//41 73//73
f 41//41 34//34 73//73
f 34//34 32//32 73//73
f 32//32 33//33 73//73
f 46//46 25//25 45//45
f 44//44 23//23 22//22
f 43//43 21//21 42//42
f 22//22 43//43 42//42
f 44//44 22//22 42//42
f 45//45 44//44 42//42
f 46//46 45//45 42//42
f 47//47 46//46 42//42
f 26//26 47//47 42//42
f 26//26 42//42 20//20
f 26//26 20//20 48//48
f 27//27 26//26 48//48
f 27//27 48//48 50//50
f 49//49 27//27 50//50
f 29//29 49//49 50//50
f 28//28 29//29 50//50
f 51//51 28//28 50//50
f 51//51 50//50 52//52
f 30//30 51//51 52//52
f 30//30 52//52 53//53
f 30//30 53//53 54//54
f 54//54 19//19 55//55
f 30//30 54//54 55//55
f 18//18 17//17 56//56
f 55//55 18//18 56//56
f 30//30 55//55 56//56
f 30//30 56//56 57//57
f 30//30 57//57 59//59
f 58//58 30//30 59//59
f 60//60 58//58 59//59
f 61//61 60//60 59//59
f 61//61 59//59 62//62
f 64//64 61//61 62//62
f 64//64 62//62 63//63
f 64//64 63//63 65//65
f 64//64 65//65 66//66
f 64//64 66//66 67//67
f 64//64 67//67 68//68
f 70//70 64//64 68//68
f 68//68 15//15 16//16
f 70//70 68//68 16//16
f 70//70 16//16 69//69
f 33//33 70//70 69//69
f 69//69 12//12 14//14
f 33//33 69//69 14//14
f 33//33 14//14 71//71
f 4//4 72//72 3//3
f 5//5 4//4 3//3
f 6//6 5//5 3//3
f 71//71 6//6 3//3
f 33//33 71//71 3//3
f 33//33 3//3 2//2
f 33//33 2//2 73//73
f 2//2 74//74 73//73
f 105//105 81//81 75//75
f 75//75 111//111 105//105
f 109//109 81//81 105//105
f 147//147 81//81 109//109
f 148//148 81//81 147//147
f 76//76 81//81 148//148
f 77//77 81//81 76//76
f 146//146 81//81 77//77
f 78//78 81//81 146//146
f 79//79 81//81 78//78
f 80//80 81//81 79//79
f 145//145 81//81 80//80
f 87//87 81//81 145//145
f 81//81 87//87 84//84
f 84//84 87//87 82//82
f 82//82 83//83 84//84
f 87//87 85//85 110//110
f 110//110 82//82 87//87
f 87//87 143//143 85//85
f 87//87 86//86 143//143
f 87//87 88//88 86//86
f 87//87 145//145 88//88
f 85//85 143//143 90//90
f 89//89 85//85 90//90
f 85//85 89//89 114//114
f 114//114 89//89 142//142
f 114//114 142//142 141//141
f 114//114 141//141 140//140
f 114//114 140//140 139//139
f 114//114 139//139 137//137
f 114//114 137//137 136//136
f 114//114 136//136 133//133
f 114//114 133//133 131//131
f 114//114 131//131 130//130
f 114//114 130//130 91//91
f 114//114 91//91 98//98
f 98//98 91//91 92//92
f 98//98 92//92 129//129
f 98//98 129//129 93//93
f 98//98 93//93 128//128
f 98//98 128//128 127//127
f 98//98 127//127 126//126
f 98//98 126//126 124//124
f 98//98 124//124 122//122
f 98//98 122//122 94//94
f 98//98 94//94 116//116
f 98//98 116//116 95//95
f 98//98 95//95 117//117
f 98//98 117//117 96//96
f 98//98 96//96 97//97
f 98//98 97//97 118//118
f 98//98 118//118 119//119
f 98//98 119//119 99//99
f 98//98 99//99 120//120
f 98//98 120//120 121//121
f 98//98 121//121 105//105
f 100//100 105//105 121//121
f 101//101 105//105 100//100
f 123//123 105//105 101//101
f 103//103 105//105 123//123
f 102//102 105//105 103//103
f 125//125 105//105 102//102
f 104//104 105//105 125//125
f 132//132 105//105 104//104
f 134//134 105//105 132//132
f 135//135 105//105 134//134
f 138//138 105//105 135//135
f 144//144 105//105 138//138
f 107//107 105//105 144//144
f 106//106 105//105 107//107
f 108//108 105//105 106//106
f 115//115 105//105 108//108
f 109//109 105//105 115//115
f 98//98 105//105 111//111
f 111//111 112//112 98//98
f 110//110 83//83 82//82
f 75//75 110//110 113//113
f 75//75 83//83 110//110
f 111//111 75//75 112//112
f 113//113 112//112 75//75
f 85//85 114//114 113//113
f 113//113 110//110 85//85
f 114//114 98//98 112//112
f 112//112 113//113 114//114
f 81//81 84//84 83//83
f 83//83 75//75 81//81
f 109//109 115//115 147//147
f 115//115 108//108 147//147
f 108//108 106//106 147//147
f 106//106 107//107 147//147
f 120//120 99//99 119//119
f 118//118 97//97 96//96
f 117//117 95//95 116//116
f 96//96 117//117 116//116
f 118//118 96//96 116//116
f 119//119 118//118 116//116
f 120//120 119//119 116//116
f 121//121 120//120 116//116
f 100//100 121//121 116//116
f 100//100 116//116 94//94
f 100//100 94//94 122//122
f 101//101 100//100 122//122
f 101//101 122//122 124//124
f 123//123 101//101 124//124
f 103//103 123//123 124//124
f 102//102 103//103 124//124
f 125//125 102//102 124//124
f 125//125 124//124 126//126
f 104//104 125//125 126//126
f 104//104 126//126 127//127
f 104//104 127//127 128//128
f 128//128 93//93 129//129
f 104//104 128//128 129//129
f 92//92 91//91 130//130
f 129//129 92//92 130//130
f 104//104 129//129 130//130
f 104//104 130//130 131//131
f 104//104 131//131 133//133
f 132//132 104//104 133//133
f 134//134 132//132 133//133
f 135//135 134//134 133//133
f 135//135 133//133 136//136
f 138//138 135//135 136//136
f 138//138 136//136 137//137
f 138//138 137//137 139//139
f 138//138 139//139 140//140
f 138//138 140//140 141//141
f 138//138 141//141 142//142
f 144//144 138//138 142//142
f 142//142 89//89 90//90
f 144//144 142//142 90//90
f 144//144 90//90 143//143
f 107//107 144//144 143//143
f 143//143 86//86 88//88
f 107//107 143//143 88//88
f 107//107 88//88 145//145
f 78//78 146//146 77//77
f 79//79 78//78 77//77
f 80//80 79//79 77//77
f 145//145 80//80 77//77
f 107//107 145//145 77//77
f 107//107 77//77 76//76
f 107//107 76//76 147//147
f 76//76 148//148 147//147
# 288 faces, 0 coords texture

# End of File
